<svg width="64" height="37" viewBox="0 0 64 37" fill="none" xmlns="http://www.w3.org/2000/svg">
<path d="M18.5 37.0002C28.7173 37.0002 37 28.7175 37 18.5002C37 8.28298 28.7173 0.000244141 18.5 0.000244141C8.28273 0.000244141 0 8.28298 0 18.5002C0 28.7175 8.28273 37.0002 18.5 37.0002Z" fill="#F3BA2F"/>
<path d="M14.8102 16.984L18.5 13.2942L22.1917 16.9859L24.3387 14.8389L18.5 9.00024L12.6632 14.837L14.8102 16.984ZM9 18.5002L11.147 16.3532L13.294 18.5002L11.147 20.6472L9 18.5002ZM14.8102 20.0164L18.5 23.7062L22.1917 20.0145L24.3387 22.1606L18.5 28.0002L12.6632 22.1634L12.6603 22.1606L14.8102 20.0164ZM23.706 18.5002L25.853 16.3532L28 18.5002L25.853 20.6472L23.706 18.5002ZM20.6774 18.4983H20.6793V18.5002L18.5 20.6795L16.3235 18.504L16.3197 18.5002L16.3235 18.4974L16.7045 18.1155L16.8898 17.9302L18.5 16.3209L20.6783 18.4993L20.6774 18.4983Z" fill="white"/>
<path d="M45.5 37.0002C55.7173 37.0002 64 28.7175 64 18.5002C64 8.28298 55.7173 0.000244141 45.5 0.000244141C35.2827 0.000244141 27 8.28298 27 18.5002C27 28.7175 35.2827 37.0002 45.5 37.0002Z" fill="#F7931A"/>
<path d="M53.9529 16.2468C54.3279 13.8303 52.4206 12.5309 49.8146 11.6639L50.6602 8.38954L48.5964 7.89377L47.7723 11.0817C47.2301 10.9502 46.6735 10.828 46.1182 10.7058L46.9482 7.49716L44.8845 7.00024L44.0389 10.2734C43.5898 10.1743 43.1479 10.0774 42.7204 9.97368L42.7228 9.9633L39.8755 9.2773L39.3262 11.4056C39.3262 11.4056 40.8585 11.7446 40.8262 11.7653C41.6622 11.9671 41.8127 12.5009 41.7876 12.9252L40.825 16.655C40.8823 16.6688 40.9564 16.6896 41.04 16.7207L40.8214 16.6688L39.4719 21.8939C39.3691 22.1383 39.11 22.5061 38.5248 22.3666C38.5463 22.3955 37.0247 22.0058 37.0247 22.0058L36 24.2863L38.6872 24.9331C39.1864 25.0541 39.6761 25.181 40.1574 25.2997L39.3035 28.611L41.366 29.1067L42.2116 25.8324C42.7753 25.9788 43.3223 26.1148 43.8574 26.244L43.0142 29.5045L45.078 30.0002L45.9319 26.6959C49.4527 27.3393 52.0993 27.0798 53.2136 24.0061C54.1117 21.5319 53.1694 20.1034 51.317 19.173C52.6666 18.8732 53.6818 18.0166 53.9529 16.2468ZM49.2353 22.6318C48.5988 25.1072 44.2813 23.7686 42.8816 23.4331L44.0162 19.0462C45.4159 19.384 49.903 20.0515 49.2353 22.6318ZM49.8743 16.2111C49.2927 18.4628 45.7002 17.3179 44.5357 17.0377L45.5628 13.0601C46.7273 13.3403 50.481 13.8625 49.8743 16.2111Z" fill="white"/>
</svg>
