<svg width="64" height="37" viewBox="0 0 64 37" fill="none" xmlns="http://www.w3.org/2000/svg">
<path d="M18.5 37C28.7173 37 37 28.7173 37 18.5C37 8.28273 28.7173 0 18.5 0C8.28273 0 0 8.28273 0 18.5C0 28.7173 8.28273 37 18.5 37Z" fill="#F7931A"/>
<path d="M26.9529 16.2466C27.3279 13.83 25.4206 12.5307 22.8146 11.6636L23.6602 8.38929L21.5964 7.89353L20.7723 11.0814C20.2301 10.95 19.6735 10.8278 19.1182 10.7055L19.9482 7.49692L17.8845 7L17.0389 10.2732C16.5898 10.174 16.1479 10.0772 15.7204 9.97343L15.7228 9.96306L12.8755 9.27706L12.3262 11.4054C12.3262 11.4054 13.8585 11.7443 13.8262 11.7651C14.6622 11.9669 14.8127 12.5007 14.7876 12.925L13.825 16.6547C13.8823 16.6686 13.9564 16.6893 14.04 16.7204L13.8214 16.6686L12.4719 21.8937C12.3691 22.1381 12.11 22.5059 11.5248 22.3664C11.5463 22.3952 10.0247 22.0055 10.0247 22.0055L9 24.286L11.6872 24.9328C12.1864 25.0539 12.6761 25.1807 13.1574 25.2995L12.3035 28.6107L14.366 29.1065L15.2116 25.8321C15.7753 25.9785 16.3223 26.1146 16.8574 26.2437L16.0142 29.5042L18.078 30L18.9319 26.6957C22.4527 27.339 25.0993 27.0796 26.2136 24.0059C27.1117 21.5317 26.1694 20.1032 24.317 19.1727C25.6666 18.873 26.6818 18.0163 26.9529 16.2466ZM22.2353 22.6316C21.5988 25.1069 17.2813 23.7684 15.8816 23.4329L17.0162 19.0459C18.4159 19.3837 22.903 20.0513 22.2353 22.6316ZM22.8743 16.2108C22.2927 18.4625 18.7002 17.3177 17.5357 17.0375L18.5628 13.0599C19.7273 13.34 23.481 13.8623 22.8743 16.2108Z" fill="white"/>
<path d="M45.5 37C55.7173 37 64 28.7173 64 18.5C64 8.28273 55.7173 0 45.5 0C35.2827 0 27 8.28273 27 18.5C27 28.7173 35.2827 37 45.5 37Z" fill="#504C4C"/>
<path d="M40.5856 18.9072L38.9279 22.4203L39.6993 25.3007L41.662 25.8251L44.0978 28.2638L43.3644 29L37.558 27.442L36 21.6356L37.1685 20.469L42.2434 15.3931L40.5856 18.9072L38.9279 22.4203L44.0978 17.2504L42.2434 15.3931L40.5856 18.9072ZM43.2504 20.9022L48.4203 26.0721L51.3007 25.3007L51.827 23.338L54.2638 20.9022L55 21.6356L53.4439 27.4439L47.6356 29L41.3951 22.7566L43.2504 20.9022ZM47.7496 18.0978L42.5797 12.9279L39.6974 13.6993L39.173 15.6591L36.7363 18.0978L36 17.3644L37.558 11.5561L43.3644 10L44.531 11.1685L49.604 16.2415L47.7496 18.0978ZM49.338 13.173L46.9022 10.7363L47.6356 10L53.4439 11.5561L55 17.3644L48.7566 23.6049L46.9022 21.7496L52.074 16.5778L51.3007 13.6974L49.338 13.173Z" fill="white"/>
</svg>
