<svg width="292" height="143" viewBox="0 0 292 143" fill="none" xmlns="http://www.w3.org/2000/svg">
<path d="M282 142.5C287.523 142.5 292.037 138.016 291.641 132.508C289.183 98.3658 274.195 66.0962 249.238 41.7373C221.857 15.0134 184.722 2.85332e-06 146 0C107.278 -2.85332e-06 70.1427 15.0133 42.7624 41.7373C17.8052 66.0962 2.81659 98.3658 0.359079 132.508C-0.0374239 138.016 4.47715 142.5 10 142.5H39.2317C44.7545 142.5 49.1756 138.009 49.7732 132.519C52.1005 111.139 61.8536 91.0588 77.5745 75.7148C95.722 58.0023 120.335 48.0515 146 48.0515C171.665 48.0515 196.278 58.0023 214.426 75.7148C230.146 91.0588 239.9 111.139 242.227 132.519C242.824 138.009 247.245 142.5 252.768 142.5H282Z" fill="#27264E"/>
</svg>
