<svg width="989" height="242" viewBox="0 0 989 242" fill="none" xmlns="http://www.w3.org/2000/svg">
<path d="M0 69.05C44.9445 69.05 44.9445 222.902 89.889 222.902C134.834 222.902 134.834 178.522 179.778 178.522C224.723 178.522 224.722 214.026 269.667 214.026C314.612 214.026 314.612 151.893 359.556 151.893C404.501 151.893 404.5 240.654 449.445 240.654C494.389 240.654 494.39 104.554 539.334 104.554C584.279 104.554 584.278 228.82 629.223 228.82C674.167 228.82 674.168 104.554 719.112 104.554C764.057 104.554 764.057 119.348 809.001 119.348C853.946 119.348 853.945 1 898.89 1C943.834 1 943.835 148.935 988.779 148.935M988.779 148.935V148.935Z" stroke="#16C784" stroke-width="2"/>
</svg>
