<svg width="188" height="57" viewBox="0 0 188 57" fill="none" xmlns="http://www.w3.org/2000/svg">
<path d="M18.6514 0.324951C19.134 0.0567264 19.7184 0.047145 20.209 0.300537C25.8444 3.21322 29.9818 8.40454 31.5596 14.5427C32.0394 16.4115 32.2822 18.279 32.2822 20.0935C32.2822 21.039 32.2211 21.9823 32.0986 22.9197C33.3274 21.6219 34.372 20.1539 35.1943 18.5564C35.4334 18.0922 35.8782 17.7687 36.3936 17.6843C36.908 17.5997 37.4339 17.7655 37.8086 18.1296C42.1654 22.3661 44.5653 28.0356 44.5654 34.0945C44.5654 46.3814 34.5696 56.3777 22.2832 56.3777C12.12 56.3777 3.25386 49.4972 0.722656 39.6453C0.243008 37.7761 0 35.9085 0 34.0945C4.96938e-05 30.5338 0.832121 27.1104 2.47266 23.9207C4.08713 20.785 6.46095 18.0391 9.33789 15.9792C9.35447 15.9674 9.37166 15.9554 9.38867 15.9441C9.4983 15.8718 9.61578 15.7852 9.74023 15.6941C9.80034 15.6501 9.86133 15.6059 9.92188 15.5623C14.4964 12.2885 17.3693 7.2135 17.8086 1.6355C17.852 1.0851 18.1687 0.593348 18.6514 0.324951ZM21.4307 27.3953C17.6644 27.3953 14.6104 30.4483 14.6104 34.2146C14.6104 37.9809 17.6643 41.0339 21.4307 41.0339C25.1968 41.0337 28.25 37.9808 28.25 34.2146C28.25 30.4484 25.1968 27.3955 21.4307 27.3953Z" fill="#845BF6"/>
<path d="M63.5101 46.5135C62.5117 46.5135 61.5999 46.325 60.7747 45.9481C59.9597 45.561 59.3128 45.0007 58.834 44.2672C58.3552 43.5337 58.1158 42.6372 58.1158 41.5777C58.1158 39.856 58.778 38.5316 60.1024 37.6045C61.4267 36.6775 63.505 36.2088 66.3371 36.1986L67.9417 36.1834V35.3735C67.9417 34.752 67.7634 34.2885 67.4068 33.9829C67.0604 33.667 66.5154 33.5142 65.7717 33.5244C65.242 33.5346 64.7071 33.662 64.1672 33.9065C63.6272 34.1408 63.2452 34.5788 63.0211 35.2206H58.7576C58.8187 34.0287 59.1702 33.0558 59.812 32.3019C60.4538 31.548 61.3096 30.9928 62.3793 30.6363C63.4591 30.2797 64.6664 30.1014 66.0009 30.1014C67.7328 30.1014 69.103 30.3103 70.1116 30.7279C71.1202 31.1354 71.8384 31.711 72.2663 32.4547C72.7043 33.1882 72.9234 34.0542 72.9234 35.0525V46.2079H68.5988L68.1556 43.5948C67.6564 44.7052 67.0299 45.4693 66.276 45.887C65.5221 46.3047 64.6002 46.5135 63.5101 46.5135ZM65.298 43.1669C65.6444 43.1669 65.9755 43.1058 66.2913 42.9835C66.6071 42.8613 66.8872 42.6932 67.1317 42.4793C67.3762 42.2551 67.5698 42.0106 67.7124 41.7458C67.8551 41.4809 67.9315 41.1956 67.9417 40.89V38.7353L66.658 38.7506C66.1283 38.7506 65.5782 38.8219 65.0077 38.9646C64.4473 39.1072 63.9736 39.3466 63.5865 39.6828C63.1994 40.0088 63.0058 40.4621 63.0058 41.0428C63.0058 41.705 63.235 42.2246 63.6935 42.6015C64.1519 42.9784 64.6867 43.1669 65.298 43.1669ZM82.6998 46.5135C81.5995 46.5135 80.5248 46.3301 79.4754 45.9634C78.4261 45.5966 77.5296 45.0109 76.7859 44.206C76.0422 43.4012 75.5634 42.3519 75.3495 41.0581H79.8116C79.9441 41.598 80.1835 42.0106 80.5299 42.2959C80.8762 42.5811 81.243 42.7747 81.6301 42.8766C82.0274 42.9784 82.3738 43.0294 82.6692 43.0294C83.4231 43.0294 84.0344 42.9224 84.503 42.7085C84.9716 42.4945 85.2059 42.1685 85.2059 41.7305C85.2059 41.3637 85.0582 41.0785 84.7628 40.8747C84.4775 40.6608 83.9732 40.4927 83.2499 40.3704L80.6979 39.8967C79.2411 39.6217 78.0696 39.1174 77.1833 38.3839C76.2969 37.6402 75.8487 36.5909 75.8385 35.2359C75.8283 34.2681 76.0881 33.3971 76.6178 32.6228C77.1476 31.8486 77.9269 31.2373 78.9559 30.7891C79.9848 30.3306 81.243 30.1014 82.7304 30.1014C84.7882 30.1014 86.4233 30.5497 87.6356 31.4462C88.848 32.3427 89.4592 33.5805 89.4694 35.1595H85.1906C85.0786 34.6196 84.7882 34.2121 84.3196 33.937C83.8612 33.6518 83.311 33.5091 82.6692 33.5091C82.0172 33.5091 81.4671 33.6212 81.0189 33.8453C80.5808 34.0593 80.3618 34.3853 80.3618 34.8233C80.3618 35.1595 80.5553 35.4295 80.9424 35.6332C81.3296 35.837 81.9459 36.0204 82.7915 36.1834L85.099 36.6571C86.0464 36.8914 86.8156 37.2072 87.4064 37.6045C87.9973 37.9916 88.4506 38.4144 88.7665 38.8729C89.0925 39.3313 89.3115 39.7897 89.4236 40.2482C89.5458 40.6964 89.6069 41.0937 89.6069 41.4401C89.6069 42.5302 89.3064 43.4522 88.7053 44.206C88.1145 44.9599 87.2944 45.5355 86.2451 45.9328C85.2059 46.3199 84.0242 46.5135 82.6998 46.5135ZM98.966 46.5135C97.8657 46.5135 96.791 46.3301 95.7417 45.9634C94.6923 45.5966 93.7958 45.0109 93.0521 44.206C92.3085 43.4012 91.8296 42.3519 91.6157 41.0581H96.0778C96.2103 41.598 96.4497 42.0106 96.7961 42.2959C97.1424 42.5811 97.5092 42.7747 97.8963 42.8766C98.2936 42.9784 98.64 43.0294 98.9354 43.0294C99.6893 43.0294 100.301 42.9224 100.769 42.7085C101.238 42.4945 101.472 42.1685 101.472 41.7305C101.472 41.3637 101.324 41.0785 101.029 40.8747C100.744 40.6608 100.239 40.4927 99.5161 40.3704L96.9642 39.8967C95.5073 39.6217 94.3358 39.1174 93.4495 38.3839C92.5631 37.6402 92.1149 36.5909 92.1047 35.2359C92.0945 34.2681 92.3543 33.3971 92.8841 32.6228C93.4138 31.8486 94.1931 31.2373 95.2221 30.7891C96.251 30.3306 97.5092 30.1014 98.9966 30.1014C101.054 30.1014 102.69 30.5497 103.902 31.4462C105.114 32.3427 105.725 33.5805 105.736 35.1595H101.457C101.345 34.6196 101.054 34.2121 100.586 33.937C100.127 33.6518 99.5773 33.5091 98.9354 33.5091C98.2834 33.5091 97.7333 33.6212 97.2851 33.8453C96.847 34.0593 96.628 34.3853 96.628 34.8233C96.628 35.1595 96.8215 35.4295 97.2087 35.6332C97.5958 35.837 98.2121 36.0204 99.0577 36.1834L101.365 36.6571C102.313 36.8914 103.082 37.2072 103.673 37.6045C104.264 37.9916 104.717 38.4144 105.033 38.8729C105.359 39.3313 105.578 39.7897 105.69 40.2482C105.812 40.6964 105.873 41.0937 105.873 41.4401C105.873 42.5302 105.573 43.4522 104.972 44.206C104.381 44.9599 103.561 45.5355 102.511 45.9328C101.472 46.3199 100.29 46.5135 98.966 46.5135ZM116.192 46.5135C114.593 46.5135 113.182 46.1824 111.959 45.5202C110.747 44.858 109.799 43.9259 109.117 42.7238C108.444 41.5216 108.108 40.1107 108.108 38.4908C108.108 36.9525 108.414 35.5517 109.025 34.2885C109.647 33.015 110.543 32.0014 111.715 31.2475C112.886 30.4834 114.297 30.1014 115.948 30.1014C117.618 30.1014 119.014 30.4529 120.135 31.1558C121.255 31.8486 122.096 32.8062 122.656 34.0287C123.227 35.241 123.512 36.6316 123.512 38.2005V39.4994H113.227C113.217 40.2227 113.329 40.834 113.564 41.3332C113.798 41.8222 114.129 42.194 114.557 42.4487C114.985 42.7034 115.484 42.8307 116.055 42.8307C116.707 42.8307 117.282 42.6983 117.781 42.4334C118.291 42.1583 118.663 41.6846 118.897 41.0122H123.542C123.369 42.1634 122.911 43.1516 122.167 43.9768C121.434 44.7918 120.537 45.4184 119.478 45.8564C118.418 46.2945 117.323 46.5135 116.192 46.5135ZM113.212 36.5043H118.683C118.683 35.9847 118.581 35.511 118.377 35.0831C118.174 34.645 117.868 34.2987 117.46 34.044C117.063 33.7893 116.559 33.662 115.948 33.662C115.408 33.662 114.929 33.7995 114.511 34.0745C114.104 34.3394 113.783 34.6909 113.548 35.129C113.324 35.5568 113.212 36.0153 113.212 36.5043ZM133.05 46.5135C131.95 46.5135 130.875 46.3301 129.826 45.9634C128.777 45.5966 127.88 45.0109 127.137 44.206C126.393 43.4012 125.914 42.3519 125.7 41.0581H130.162C130.295 41.598 130.534 42.0106 130.88 42.2959C131.227 42.5811 131.594 42.7747 131.981 42.8766C132.378 42.9784 132.724 43.0294 133.02 43.0294C133.774 43.0294 134.385 42.9224 134.854 42.7085C135.322 42.4945 135.557 42.1685 135.557 41.7305C135.557 41.3637 135.409 41.0785 135.113 40.8747C134.828 40.6608 134.324 40.4927 133.601 40.3704L131.049 39.8967C129.592 39.6217 128.42 39.1174 127.534 38.3839C126.648 37.6402 126.199 36.5909 126.189 35.2359C126.179 34.2681 126.439 33.3971 126.968 32.6228C127.498 31.8486 128.278 31.2373 129.307 30.7891C130.335 30.3306 131.594 30.1014 133.081 30.1014C135.139 30.1014 136.774 30.5497 137.986 31.4462C139.199 32.3427 139.81 33.5805 139.82 35.1595H135.541C135.429 34.6196 135.139 34.2121 134.67 33.937C134.212 33.6518 133.662 33.5091 133.02 33.5091C132.368 33.5091 131.818 33.6212 131.369 33.8453C130.931 34.0593 130.712 34.3853 130.712 34.8233C130.712 35.1595 130.906 35.4295 131.293 35.6332C131.68 35.837 132.297 36.0204 133.142 36.1834L135.45 36.6571C136.397 36.8914 137.166 37.2072 137.757 37.6045C138.348 37.9916 138.801 38.4144 139.117 38.8729C139.443 39.3313 139.662 39.7897 139.774 40.2482C139.896 40.6964 139.958 41.0937 139.958 41.4401C139.958 42.5302 139.657 43.4522 139.056 44.206C138.465 44.9599 137.645 45.5355 136.596 45.9328C135.557 46.3199 134.375 46.5135 133.05 46.5135ZM149.317 46.5135C148.216 46.5135 147.142 46.3301 146.092 45.9634C145.043 45.5966 144.146 45.0109 143.403 44.206C142.659 43.4012 142.18 42.3519 141.966 41.0581H146.428C146.561 41.598 146.8 42.0106 147.147 42.2959C147.493 42.5811 147.86 42.7747 148.247 42.8766C148.644 42.9784 148.991 43.0294 149.286 43.0294C150.04 43.0294 150.651 42.9224 151.12 42.7085C151.588 42.4945 151.823 42.1685 151.823 41.7305C151.823 41.3637 151.675 41.0785 151.38 40.8747C151.094 40.6608 150.59 40.4927 149.867 40.3704L147.315 39.8967C145.858 39.6217 144.686 39.1174 143.8 38.3839C142.914 37.6402 142.466 36.5909 142.455 35.2359C142.445 34.2681 142.705 33.3971 143.235 32.6228C143.764 31.8486 144.544 31.2373 145.573 30.7891C146.602 30.3306 147.86 30.1014 149.347 30.1014C151.405 30.1014 153.04 30.5497 154.252 31.4462C155.465 32.3427 156.076 33.5805 156.086 35.1595H151.807C151.695 34.6196 151.405 34.2121 150.936 33.937C150.478 33.6518 149.928 33.5091 149.286 33.5091C148.634 33.5091 148.084 33.6212 147.636 33.8453C147.198 34.0593 146.979 34.3853 146.979 34.8233C146.979 35.1595 147.172 35.4295 147.559 35.6332C147.946 35.837 148.563 36.0204 149.408 36.1834L151.716 36.6571C152.663 36.8914 153.432 37.2072 154.023 37.6045C154.614 37.9916 155.067 38.4144 155.383 38.8729C155.709 39.3313 155.928 39.7897 156.04 40.2482C156.163 40.6964 156.224 41.0937 156.224 41.4401C156.224 42.5302 155.923 43.4522 155.322 44.206C154.731 44.9599 153.911 45.5355 152.862 45.9328C151.823 46.3199 150.641 46.5135 149.317 46.5135ZM166.176 46.5135C164.587 46.5135 163.206 46.1773 162.035 45.5049C160.863 44.8224 159.956 43.8749 159.315 42.6626C158.673 41.4401 158.352 40.019 158.352 38.3991C158.352 36.7488 158.678 35.3021 159.33 34.0593C159.992 32.8062 160.909 31.8333 162.081 31.1405C163.262 30.4478 164.638 30.1014 166.207 30.1014C167.806 30.1014 169.186 30.4529 170.348 31.1558C171.519 31.8486 172.421 32.8215 173.053 34.0745C173.694 35.3174 174.015 36.759 174.015 38.3991C174.015 39.9782 173.699 41.379 173.068 42.6015C172.436 43.8138 171.535 44.7714 170.363 45.4744C169.191 46.1671 167.796 46.5135 166.176 46.5135ZM166.207 42.6932C166.909 42.6932 167.46 42.4742 167.857 42.0361C168.254 41.5878 168.534 41.0224 168.697 40.3399C168.86 39.6471 168.942 38.9442 168.942 38.2311C168.942 37.5281 168.865 36.8405 168.713 36.1681C168.56 35.4957 168.285 34.9456 167.887 34.5177C167.49 34.0796 166.93 33.8606 166.207 33.8606C165.483 33.8606 164.918 34.0745 164.51 34.5024C164.113 34.9201 163.833 35.4651 163.67 36.1375C163.507 36.7997 163.425 37.4976 163.425 38.2311C163.425 38.9238 163.502 39.6166 163.655 40.3093C163.807 40.9919 164.082 41.5624 164.48 42.0208C164.887 42.4691 165.463 42.6932 166.207 42.6932ZM176.768 46.2079V30.407H181.781V34.4566C182.025 33.6314 182.376 32.8928 182.835 32.2408C183.304 31.5786 183.879 31.059 184.562 30.6821C185.244 30.295 186.034 30.1014 186.93 30.1014C187.042 30.1014 187.139 30.1065 187.221 30.1167C187.312 30.1167 187.368 30.1269 187.389 30.1473V35.0831C187.338 35.0627 187.272 35.0475 187.19 35.0373C187.119 35.0271 187.042 35.022 186.961 35.022C185.963 34.9201 185.137 34.9354 184.485 35.0678C183.843 35.2003 183.334 35.4142 182.957 35.7096C182.59 36.0051 182.331 36.3566 182.178 36.7641C182.035 37.1716 181.964 37.6147 181.964 38.0935V46.2079H176.768Z" fill="white"/>
<path d="M57.9177 25.5673V16.8923H60.7199V18.1088C60.994 17.7285 61.3603 17.4041 61.819 17.1356C62.2776 16.8615 62.8425 16.7245 63.5137 16.7245C63.8045 16.7245 64.101 16.7776 64.403 16.8839C64.705 16.9846 64.9875 17.1384 65.2504 17.3453C65.5188 17.5467 65.7453 17.7984 65.9299 18.1004C66.2096 17.7201 66.5759 17.3957 67.029 17.1272C67.482 16.8587 67.9882 16.7245 68.5475 16.7245C68.8719 16.7245 69.2019 16.7832 69.5375 16.9007C69.8731 17.0125 70.1779 17.1915 70.452 17.4376C70.7316 17.6781 70.9554 17.9941 71.1232 18.3857C71.2965 18.7772 71.3832 19.2554 71.3832 19.8203V25.5673H68.5223V20.1978C68.5223 19.9238 68.4608 19.7028 68.3378 19.535C68.2203 19.3617 68.0693 19.2358 67.8847 19.1575C67.7002 19.0736 67.5072 19.0317 67.3058 19.0317C67.1157 19.0317 66.9255 19.0708 66.7353 19.1491C66.5452 19.2274 66.3858 19.3477 66.2571 19.5099C66.1285 19.6721 66.0642 19.879 66.0642 20.1307V25.5673H63.2117V20.0888C63.2117 19.8595 63.1501 19.6665 63.0271 19.5099C62.9096 19.3533 62.7586 19.2358 62.574 19.1575C62.3951 19.0736 62.2077 19.0317 62.0119 19.0317C61.8218 19.0317 61.6288 19.0736 61.433 19.1575C61.2429 19.2358 61.0835 19.3561 60.9548 19.5183C60.8318 19.6805 60.7702 19.8846 60.7702 20.1307V25.5673H57.9177ZM77.2926 25.7351C76.4145 25.7351 75.6398 25.5533 74.9687 25.1897C74.3031 24.8262 73.7829 24.3144 73.4082 23.6544C73.039 22.9944 72.8545 22.2198 72.8545 21.3304C72.8545 20.4859 73.0223 19.7168 73.3578 19.0233C73.699 18.3241 74.1912 17.7676 74.8344 17.3537C75.4776 16.9342 76.2523 16.7245 77.1584 16.7245C78.0757 16.7245 78.8419 16.9175 79.4572 17.3034C80.0724 17.6837 80.5339 18.2095 80.8415 18.8806C81.1547 19.5462 81.3113 20.3097 81.3113 21.171V21.8842H75.665C75.6594 22.2813 75.7209 22.6169 75.8496 22.8909C75.9782 23.1594 76.16 23.3636 76.3949 23.5034C76.6298 23.6432 76.9039 23.7131 77.2171 23.7131C77.5751 23.7131 77.8911 23.6404 78.1652 23.495C78.4448 23.344 78.649 23.0839 78.7776 22.7148H81.3281C81.233 23.3468 80.9813 23.8893 80.573 24.3424C80.1703 24.7898 79.6781 25.1338 79.0964 25.3743C78.5147 25.6148 77.9135 25.7351 77.2926 25.7351ZM75.6566 20.2398H78.6601C78.6601 19.9545 78.6042 19.6945 78.4924 19.4595C78.3805 19.219 78.2127 19.0289 77.989 18.889C77.7708 18.7492 77.494 18.6793 77.1584 18.6793C76.862 18.6793 76.5991 18.7548 76.3698 18.9058C76.146 19.0512 75.9698 19.2442 75.8412 19.4847C75.7182 19.7196 75.6566 19.9713 75.6566 20.2398ZM86.0292 25.7351C85.6545 25.7351 85.2741 25.6735 84.8882 25.5505C84.5023 25.4274 84.1471 25.2485 83.8227 25.0135C83.4983 24.773 83.2354 24.4822 83.0341 24.141C82.8383 23.7942 82.7404 23.3971 82.7404 22.9497V16.8923H85.6013V22.5637C85.6013 22.8881 85.7132 23.1594 85.9369 23.3775C86.1607 23.5901 86.4823 23.6964 86.9017 23.6964C87.3045 23.6964 87.6233 23.5929 87.8582 23.3859C88.0931 23.1734 88.2105 22.8937 88.2105 22.547V16.8923H91.0463V25.5673H88.9153L88.5797 23.8138C88.4734 24.3563 88.2777 24.7674 87.9924 25.0471C87.7072 25.3212 87.3856 25.5029 87.0276 25.5924C86.6752 25.6875 86.3424 25.7351 86.0292 25.7351Z" fill="white"/>
</svg>
