<svg width="40" height="50" viewBox="0 0 40 50" fill="none" xmlns="http://www.w3.org/2000/svg">
<path d="M16.3691 0.182617C16.7927 -0.0528273 17.3058 -0.0611662 17.7363 0.161133C22.6823 2.7175 26.3135 7.27385 27.6982 12.6611C28.1194 14.3013 28.333 15.9407 28.333 17.5332C28.333 18.363 28.2784 19.191 28.1709 20.0137C29.2495 18.8746 30.1669 17.5858 30.8887 16.1836C31.0985 15.7761 31.489 15.4919 31.9414 15.418C32.3929 15.3437 32.8547 15.489 33.1836 15.8086C37.0074 19.5268 39.1133 24.5036 39.1133 29.8213C39.1131 40.6047 30.3405 49.3777 19.5576 49.3779C10.6378 49.3779 2.85634 43.339 0.634766 34.6924C0.213824 33.052 2.64202e-05 31.4133 0 29.8213C0 26.6961 0.730047 23.6912 2.16992 20.8916C3.58694 18.1394 5.67114 15.7298 8.19629 13.9219C8.21087 13.9114 8.22527 13.9006 8.24023 13.8906C8.33643 13.8272 8.43962 13.7518 8.54883 13.6719C8.60158 13.6333 8.65487 13.594 8.70801 13.5557C12.7229 10.6825 15.2443 6.22859 15.6299 1.33301C15.6679 0.849931 15.9456 0.418241 16.3691 0.182617ZM18.8086 23.9414C15.5032 23.9414 12.8234 26.6204 12.8232 29.9258C12.8232 33.2313 15.503 35.9111 18.8086 35.9111C22.1141 35.911 24.7939 33.2313 24.7939 29.9258C24.7937 26.6205 22.1139 23.9415 18.8086 23.9414Z" fill="#845BF6"/>
</svg>
