<svg width="498" height="122" viewBox="0 0 498 122" fill="none" xmlns="http://www.w3.org/2000/svg">
<path d="M1 121C1 121 7.19279 110.611 13.8845 106.317C24.9504 99.2161 46.4498 102.961 54.9732 104.842C57.1304 105.319 59.3802 104.424 60.5484 102.549L67.3572 91.6216C69.4743 88.2237 72.9456 85.8103 76.9383 85.5181C94.2898 84.2482 107.773 90.2902 115.426 94.9828C120.1 97.8485 125.681 99.4932 130.966 98.0332C135.93 96.6617 142.037 94.6766 146.286 92.287C156.598 86.4869 157.421 78.3969 167.22 71.9703C172.219 68.6918 174.873 66.1783 180.918 64.701C195.826 61.0572 201.457 76.5931 216.482 79.8637C227.565 82.2763 234.251 83.1089 245.631 82.171C254.157 81.4682 259.172 80.8403 266.959 77.7691C279.082 72.9882 287.002 56.8282 308.438 69.2133C329.874 81.5983 361.756 84.0803 372.658 71.9703C383.561 59.8603 386.693 37.482 400.669 35.6715C414.65 33.8605 418.197 92.9055 431.69 89.2682C440.658 86.8505 445.76 75.098 445.76 75.098L459.424 45.0858C464.207 35.6715 467.02 20.7102 477.187 16.2477C483.35 13.5427 497 1 497 1" stroke="#16C784" stroke-width="2"/>
</svg>
