<svg width="18" height="23" viewBox="0 0 18 23" fill="none" xmlns="http://www.w3.org/2000/svg">
<path d="M17.9529 9.24682C18.3279 6.83026 16.4206 5.5309 13.8146 4.66389L14.6602 1.38954L12.5964 0.893773L11.7723 4.08165C11.2301 3.95022 10.6735 3.828 10.1182 3.70579L10.9482 0.497162L8.88447 0.000244141L8.0389 3.27344C7.58984 3.17429 7.14795 3.07744 6.72038 2.97368L6.72277 2.9633L3.87554 2.2773L3.32615 4.40563C3.32615 4.40563 4.85845 4.74459 4.82621 4.76535C5.66222 4.96711 5.81271 5.50092 5.78763 5.9252L4.82501 9.65496C4.88234 9.6688 4.95639 9.68955 5.03999 9.72068L4.82143 9.6688L3.47186 14.8939C3.36915 15.1383 3.10998 15.5061 2.52477 15.3666C2.54627 15.3955 1.02472 15.0058 1.02472 15.0058L0 17.2863L2.6872 17.9331C3.18642 18.0541 3.67609 18.181 4.15739 18.2997L3.30346 21.611L5.36603 22.1067L6.21161 18.8324C6.77532 18.9788 7.32232 19.1148 7.85737 19.244L7.01418 22.5045L9.07795 23.0002L9.93188 19.6959C13.4527 20.3393 16.0993 20.0798 17.2136 17.0061C18.1117 14.5319 17.1694 13.1034 15.317 12.173C16.6666 11.8732 17.6818 11.0166 17.9529 9.24682ZM13.2353 15.6318C12.5988 18.1072 8.28135 16.7686 6.88161 16.4331L8.01621 12.0462C9.41594 12.384 13.903 13.0515 13.2353 15.6318ZM13.8743 9.21108C13.2927 11.4628 9.70019 10.3179 8.53573 10.0377L9.56284 6.0601C10.7273 6.34026 14.481 6.86254 13.8743 9.21108Z" fill="white"/>
</svg>
