<?xml version="1.0" encoding="UTF-8"?>
<svg xmlns="http://www.w3.org/2000/svg" xmlns:xlink="http://www.w3.org/1999/xlink" width="1px" height="1px" viewBox="0 0 14 17" version="1.1">
<g id="surface1">
<path style=" stroke:none;fill-rule:nonzero;fill:rgb(100%,100%,100%);fill-opacity:1;" d="M 13.964844 6.835938 C 14.253906 5.046875 12.773438 4.089844 10.746094 3.445312 L 11.402344 1.027344 L 9.796875 0.660156 L 9.15625 3.015625 C 8.734375 2.917969 8.300781 2.828125 7.871094 2.738281 L 8.515625 0.367188 L 6.910156 0 L 6.253906 2.417969 C 5.902344 2.347656 5.558594 2.273438 5.226562 2.199219 L 5.230469 2.191406 L 3.015625 1.683594 L 2.585938 3.257812 C 2.585938 3.257812 3.777344 3.507812 3.753906 3.523438 C 4.402344 3.671875 4.519531 4.066406 4.5 4.378906 L 3.753906 7.136719 C 3.796875 7.148438 3.855469 7.160156 3.921875 7.183594 L 3.75 7.148438 L 2.699219 11.007812 C 2.621094 11.1875 2.417969 11.460938 1.964844 11.359375 C 1.980469 11.378906 0.796875 11.089844 0.796875 11.089844 L 0 12.777344 L 2.089844 13.253906 C 2.476562 13.34375 2.859375 13.4375 3.234375 13.527344 L 2.570312 15.972656 L 4.171875 16.339844 L 4.832031 13.917969 C 5.269531 14.027344 5.695312 14.128906 6.109375 14.222656 L 5.457031 16.632812 L 7.0625 17 L 7.726562 14.558594 C 10.464844 15.035156 12.523438 14.839844 13.386719 12.570312 C 14.085938 10.742188 13.355469 9.683594 11.914062 8.996094 C 12.964844 8.777344 13.753906 8.144531 13.964844 6.835938 Z M 10.292969 11.554688 C 9.800781 13.382812 6.441406 12.394531 5.351562 12.144531 L 6.234375 8.902344 C 7.324219 9.152344 10.8125 9.648438 10.292969 11.554688 Z M 10.792969 6.808594 C 10.339844 8.472656 7.542969 7.625 6.640625 7.417969 L 7.4375 4.480469 C 8.34375 4.6875 11.261719 5.074219 10.792969 6.808594 Z M 10.792969 6.808594 "/>
</g>
</svg>
