<?xml version="1.0" encoding="UTF-8"?>
<svg xmlns="http://www.w3.org/2000/svg" xmlns:xlink="http://www.w3.org/1999/xlink" width="37px" height="37px" viewBox="0 0 37 37" version="1.1">
<g id="surface1">
<path style=" stroke:none;fill-rule:nonzero;fill:rgb(96.862745%,57.647061%,10.196079%);fill-opacity:1;" d="M 36.445312 22.976562 C 33.976562 32.882812 23.9375 38.914062 14.023438 36.445312 C 4.113281 33.972656 -1.917969 23.9375 0.554688 14.027344 C 3.023438 4.117188 13.0625 -1.914062 22.972656 0.554688 C 32.886719 3.027344 38.917969 13.066406 36.445312 22.976562 Z M 36.445312 22.976562 "/>
<path style=" stroke:none;fill-rule:nonzero;fill:rgb(100%,100%,100%);fill-opacity:1;" d="M 26.660156 15.863281 C 27.027344 13.402344 25.152344 12.078125 22.589844 11.195312 L 23.421875 7.863281 L 21.390625 7.355469 L 20.582031 10.601562 C 20.046875 10.46875 19.5 10.34375 18.953125 10.21875 L 19.769531 6.953125 L 17.742188 6.445312 L 16.910156 9.78125 C 16.464844 9.679688 16.03125 9.582031 15.613281 9.476562 L 15.613281 9.464844 L 12.816406 8.765625 L 12.273438 10.933594 C 12.273438 10.933594 13.78125 11.277344 13.75 11.300781 C 14.570312 11.503906 14.71875 12.050781 14.695312 12.480469 L 13.746094 16.28125 C 13.804688 16.292969 13.878906 16.316406 13.957031 16.347656 C 13.890625 16.332031 13.820312 16.3125 13.746094 16.292969 L 12.417969 21.617188 C 12.316406 21.867188 12.0625 22.242188 11.488281 22.097656 C 11.507812 22.128906 10.011719 21.730469 10.011719 21.730469 L 9.003906 24.054688 L 11.644531 24.710938 C 12.136719 24.835938 12.617188 24.964844 13.09375 25.085938 L 12.253906 28.457031 L 14.28125 28.964844 L 15.113281 25.625 C 15.667969 25.777344 16.203125 25.914062 16.730469 26.046875 L 15.902344 29.367188 L 17.929688 29.875 L 18.769531 26.507812 C 22.234375 27.164062 24.835938 26.898438 25.933594 23.765625 C 26.816406 21.246094 25.886719 19.792969 24.066406 18.84375 C 25.394531 18.539062 26.394531 17.667969 26.660156 15.863281 Z M 22.019531 22.367188 C 21.390625 24.886719 17.148438 23.527344 15.769531 23.183594 L 16.886719 18.714844 C 18.261719 19.058594 22.675781 19.738281 22.019531 22.367188 Z M 22.648438 15.828125 C 22.074219 18.121094 18.542969 16.957031 17.394531 16.671875 L 18.40625 12.617188 C 19.554688 12.902344 23.242188 13.4375 22.648438 15.828125 Z M 22.648438 15.828125 "/>
</g>
</svg>
