<svg width="37" height="37" viewBox="0 0 37 37" fill="none" xmlns="http://www.w3.org/2000/svg">
<path d="M18.5 37.0002C28.7173 37.0002 37 28.7175 37 18.5002C37 8.28298 28.7173 0.000244141 18.5 0.000244141C8.28273 0.000244141 0 8.28298 0 18.5002C0 28.7175 8.28273 37.0002 18.5 37.0002Z" fill="#627EEA"/>
<path d="M19.0759 4.62524V14.8812L27.7443 18.7546L19.0759 4.62524Z" fill="white" fill-opacity="0.602"/>
<path d="M19.0758 4.62524L10.4062 18.7546L19.0758 14.8812V4.62524Z" fill="white"/>
<path d="M19.0759 25.401V32.3697L27.7501 20.369L19.0759 25.401Z" fill="white" fill-opacity="0.602"/>
<path d="M19.0758 32.3697V25.3998L10.4062 20.369L19.0758 32.3697Z" fill="white"/>
<path d="M19.0759 23.7878L27.7443 18.7547L19.0759 14.8835V23.7878Z" fill="white" fill-opacity="0.2"/>
<path d="M10.4062 18.7547L19.0758 23.7878V14.8835L10.4062 18.7547Z" fill="white" fill-opacity="0.602"/>
</svg>
