<svg width="29" height="29" viewBox="0 0 29 29" fill="none" xmlns="http://www.w3.org/2000/svg">
<path d="M14.5242 24.8071C11.7088 24.8071 8.89334 24.36 6.22292 23.4658C5.20792 23.1154 4.43459 22.4025 4.09625 21.4721C3.74584 20.5417 3.86667 19.5146 4.4225 18.5962L5.81209 16.2883C6.10209 15.805 6.36792 14.8383 6.36792 14.2704V10.7783C6.36792 6.28333 10.0292 2.62208 14.5242 2.62208C19.0192 2.62208 22.6804 6.28333 22.6804 10.7783V14.2704C22.6804 14.8262 22.9463 15.805 23.2363 16.3004L24.6138 18.5962C25.1333 19.4662 25.23 20.5175 24.8796 21.4721C24.5292 22.4267 23.7679 23.1517 22.8133 23.4658C20.155 24.36 17.3396 24.8071 14.5242 24.8071ZM14.5242 4.43458C11.0321 4.43458 8.18042 7.27417 8.18042 10.7783V14.2704C8.18042 15.1525 7.81792 16.4575 7.37084 17.2187L5.98125 19.5267C5.71542 19.9737 5.64292 20.445 5.8 20.8437C5.945 21.2546 6.3075 21.5687 6.80292 21.7379C11.8538 23.4296 17.2067 23.4296 22.2575 21.7379C22.6925 21.5929 23.0308 21.2667 23.1879 20.8317C23.345 20.3967 23.3088 19.9254 23.0671 19.5267L21.6775 17.2187C21.2183 16.4333 20.8679 15.1404 20.8679 14.2583V10.7783C20.8679 7.27417 18.0283 4.43458 14.5242 4.43458Z" fill="#F5F5F5"/>
<path d="M16.7717 4.76083C16.6871 4.76083 16.6025 4.74875 16.518 4.72458C16.1675 4.62792 15.8292 4.55542 15.503 4.50709C14.4759 4.37417 13.485 4.44667 12.5546 4.72458C12.2163 4.83333 11.8538 4.72458 11.6242 4.47083C11.3946 4.21708 11.3221 3.85458 11.455 3.52833C11.9505 2.25958 13.1588 1.42583 14.5363 1.42583C15.9138 1.42583 17.1221 2.2475 17.6175 3.52833C17.7384 3.85458 17.678 4.21708 17.4484 4.47083C17.2671 4.66417 17.0134 4.76083 16.7717 4.76083Z" fill="#F5F5F5"/>
<path d="M14.5242 27.5621C13.3279 27.5621 12.1679 27.0787 11.3221 26.2329C10.4763 25.3871 9.99292 24.2271 9.99292 23.0308H11.8054C11.8054 23.7437 12.0954 24.4446 12.6029 24.9521C13.1104 25.4596 13.8113 25.7496 14.5242 25.7496C16.0225 25.7496 17.2429 24.5292 17.2429 23.0308H19.0554C19.0554 25.5321 17.0254 27.5621 14.5242 27.5621Z" fill="#F5F5F5"/>
</svg>
