<svg width="494" height="119" viewBox="0 0 494 119" fill="none" xmlns="http://www.w3.org/2000/svg">
<path d="M10.1628 104.324C3.46107 108.616 0 119 0 119H494V60.3794V0C494 0 481.699 11.0051 475.527 13.7089C465.345 18.1695 461.159 33.7089 456.369 43.119L442.685 73.1181C442.685 73.1181 437.575 84.8654 428.593 87.2821C415.08 90.9178 411.528 31.8987 397.526 33.7089C383.528 35.5186 380.392 57.887 369.473 69.9917C358.555 82.0965 326.625 79.6155 305.157 67.2359C283.689 54.8563 275.757 71.0092 263.616 75.788C255.817 78.8579 250.795 79.4855 242.256 80.188C230.859 81.1254 224.162 80.2933 213.063 77.8817C198.016 74.6125 192.376 59.0834 177.446 62.7256C171.392 64.2023 168.734 66.7147 163.728 69.9917C153.914 76.4155 153.09 84.502 142.762 90.2995C138.5 92.6922 132.37 94.6792 127.393 96.0503C122.116 97.5046 116.543 95.8643 111.875 93.0052C104.211 88.3118 90.6947 82.2601 73.297 83.5346C69.3069 83.8269 65.8369 86.2362 63.7182 89.63L56.8935 100.562C55.725 102.434 53.4783 103.327 51.3234 102.852C42.7944 100.972 21.2498 97.2228 10.1628 104.324Z" fill="url(#paint0_linear_1_67)"/>
<defs>
<linearGradient id="paint0_linear_1_67" x1="269.268" y1="121.931" x2="268.766" y2="-405.643" gradientUnits="userSpaceOnUse">
<stop stop-color="#16C784" stop-opacity="0"/>
<stop offset="1" stop-color="#16C784"/>
</linearGradient>
</defs>
</svg>
