<svg width="183" height="146" viewBox="0 0 183 146" fill="none" xmlns="http://www.w3.org/2000/svg">
<path d="M182.268 14.9279C183.791 9.56855 180.645 3.96309 175.18 2.87514C156.272 -0.889277 136.753 -0.964274 117.754 2.69219C95.4339 6.98802 74.4509 16.3155 56.4792 29.9305C38.5074 43.5455 24.0442 61.0713 14.2432 81.1099C5.91487 98.1376 1.14886 116.579 0.183438 135.359C-0.0999195 140.87 4.49952 145.258 10.0175 145.151L39.6514 144.573C45.177 144.466 49.511 139.884 49.9999 134.379C50.9957 123.165 54.0485 112.189 59.0405 101.983C65.5092 88.7571 75.0549 77.19 86.9163 68.2041C98.7776 59.2182 112.626 53.0621 127.358 50.2268C138.848 48.0155 150.626 47.872 162.118 49.7751C167.519 50.6694 172.968 47.6402 174.465 42.3748L182.268 14.9279Z" fill="#16C784"/>
</svg>
