<?xml version="1.0" standalone="no"?>
<!DOCTYPE svg PUBLIC "-//W3C//DTD SVG 20010904//EN"
 "http://www.w3.org/TR/2001/REC-SVG-20010904/DTD/svg10.dtd">
<svg version="1.0" xmlns="http://www.w3.org/2000/svg"
 width="1024.000000pt" height="1024.000000pt" viewBox="0 0 1024.000000 1024.000000"
 preserveAspectRatio="xMidYMid meet">

<g transform="translate(0.000000,1024.000000) scale(0.100000,-0.100000)"
fill="#000000" stroke="none">
<path d="M5355 8969 c-101 -8 -232 -28 -425 -64 -121 -23 -230 -83 -325 -179
-101 -102 -185 -228 -222 -331 -27 -77 -28 -87 -27 -260 0 -180 33 -496 55
-537 9 -16 7 -18 -16 -12 -19 5 -32 1 -51 -17 -13 -12 -24 -26 -24 -31 0 -5
11 3 24 18 22 27 25 27 64 16 84 -25 115 -97 137 -317 29 -295 29 -272 -2
-290 -16 -9 -19 -13 -8 -10 11 4 24 7 29 8 5 1 15 -34 21 -78 39 -252 106
-384 298 -582 104 -108 117 -117 231 -175 118 -59 123 -61 217 -66 196 -10
317 33 420 148 78 87 168 229 212 334 39 93 75 236 84 334 4 50 12 74 30 95
28 35 31 58 2 26 l-20 -24 6 80 c3 44 10 116 15 160 5 44 9 112 9 152 1 67 3
74 35 107 19 21 28 36 20 36 -8 0 -23 -15 -34 -32 l-20 -33 0 47 c0 37 5 50
23 64 15 11 16 15 5 11 -23 -8 -23 7 2 175 42 281 48 544 15 664 -19 68 -64
126 -116 152 l-42 21 -2 73 c-2 118 -58 199 -183 262 -95 49 -260 69 -437 55z
m-175 -581 c283 -64 361 -62 556 13 51 20 87 28 104 24 62 -16 119 -85 162
-198 21 -53 23 -80 48 -527 22 -403 23 -461 6 -580 -14 -96 -25 -131 -63 -212
-25 -53 -61 -111 -79 -129 l-33 -32 -9 24 c-5 13 -13 43 -17 67 -9 54 -46 99
-93 112 -20 5 -74 19 -120 31 -91 23 -94 34 -23 67 42 20 60 59 43 94 -10 21
-10 20 -5 -8 7 -44 -12 -77 -41 -70 -13 3 -34 -3 -51 -14 -17 -12 -24 -20 -15
-20 17 -1 -34 -47 -62 -55 -9 -3 -33 6 -53 20 -41 27 -96 33 -114 11 -6 -7
-48 -19 -94 -26 -191 -29 -230 -54 -272 -169 -12 -31 -28 -57 -37 -59 -22 -4
-107 81 -158 156 -55 84 -94 181 -122 305 -19 86 -23 131 -23 282 0 165 2 183
22 220 96 178 96 179 62 322 -28 117 -28 206 -1 259 29 56 105 122 151 130 20
3 41 7 46 9 20 8 113 -8 285 -47z m440 -1538 c83 -5 98 -7 55 -9 -33 -1 -69
-4 -80 -6 -11 -2 -80 -6 -154 -9 -98 -4 -139 -2 -149 7 -12 10 -1 14 64 24 43
6 95 9 114 6 19 -3 87 -9 150 -13z m-372 -17 c-10 -2 -26 -2 -35 0 -10 3 -2 5
17 5 19 0 27 -2 18 -5z m528 -64 c-17 -183 -114 -336 -192 -301 -43 20 -46 44
-13 97 24 37 26 46 12 40 -10 -5 -65 -10 -123 -13 -78 -3 -116 0 -150 12 -24
8 -46 14 -47 12 -2 -2 15 -23 37 -48 44 -51 47 -63 24 -96 -11 -17 -25 -22
-57 -22 -68 0 -132 53 -179 145 -45 87 -53 235 -13 235 8 0 44 -18 81 -40 91
-56 165 -75 294 -74 135 2 176 14 251 74 34 28 67 50 72 50 6 0 7 -27 3 -71z
m-96 51 c0 -15 -70 -57 -127 -75 -35 -12 -74 -15 -125 -13 -95 6 -268 57 -268
79 0 5 84 6 188 3 154 -4 233 -1 325 15 4 0 7 -3 7 -9z"/>
<path d="M4924 7712 c-49 -20 -72 -38 -102 -76 -20 -27 -31 -82 -14 -74 111
56 173 68 358 68 122 0 143 2 148 16 11 28 -20 61 -68 73 -71 18 -273 13 -322
-7z"/>
<path d="M5671 7720 c-65 -10 -97 -37 -87 -73 l6 -26 163 2 c165 2 219 -6 252
-40 13 -13 15 -11 15 17 0 41 -25 83 -64 106 -35 21 -190 29 -285 14z"/>
<path d="M5083 7590 c-81 -21 -125 -42 -162 -76 -26 -24 -26 -24 -3 -24 12 0
22 4 22 10 0 8 51 40 65 40 3 0 5 -9 5 -19 0 -39 11 -51 49 -51 52 0 84 25 79
61 -3 16 -1 29 3 29 4 0 30 -16 58 -35 28 -19 54 -35 58 -35 11 0 -87 70 -117
83 l-25 11 27 4 c40 5 131 -46 138 -78 4 -16 8 -21 13 -13 15 24 -27 64 -107
100 -15 7 -29 13 -30 12 0 0 -33 -9 -73 -19z m27 -50 c0 -5 -4 -10 -10 -10 -5
0 -10 5 -10 10 0 6 5 10 10 10 6 0 10 -4 10 -10z"/>
<path d="M5578 7593 c-28 -33 -38 -61 -37 -110 l2 -48 7 56 c7 52 34 108 53
109 5 0 6 -4 3 -8 -2 -4 5 -9 17 -9 21 -2 22 -1 3 13 -25 18 -30 18 -48 -3z"/>
<path d="M5656 7584 c-21 -21 -20 -23 7 -17 20 5 20 4 -5 -16 -16 -13 -33 -19
-40 -15 -7 4 -10 4 -6 -1 4 -4 3 -14 -4 -22 -24 -29 3 -24 39 8 l38 33 3 -25
c5 -35 31 -59 64 -59 36 0 68 31 61 59 -7 28 4 26 50 -5 21 -14 43 -24 50 -21
6 2 -13 20 -44 41 -38 25 -74 40 -115 46 -77 13 -80 13 -98 -6z m114 -44 c0
-5 -2 -10 -4 -10 -3 0 -8 5 -11 10 -3 6 -1 10 4 10 6 0 11 -4 11 -10z"/>
<path d="M5240 7151 c-23 -43 -10 -88 35 -121 18 -13 18 -12 -1 10 -29 34 -36
59 -25 98 11 36 7 42 -9 13z"/>
<path d="M5350 7061 c0 -6 4 -12 8 -15 5 -3 9 1 9 9 0 8 -4 15 -9 15 -4 0 -8
-4 -8 -9z"/>
<path d="M5391 7041 c-10 -6 -9 -10 5 -15 20 -8 25 -4 16 11 -4 7 -13 9 -21 4z"/>
<path d="M5069 7003 c-13 -16 -12 -17 4 -4 9 7 17 15 17 17 0 8 -8 3 -21 -13z"/>
<path d="M5786 7008 c22 -37 64 -90 64 -81 0 12 -57 93 -66 93 -3 0 -2 -6 2
-12z"/>
<path d="M6170 7555 c0 -5 5 -17 10 -25 5 -8 10 -10 10 -5 0 6 -5 17 -10 25
-5 8 -10 11 -10 5z"/>
<path d="M4356 7523 c-8 -9 -5 -122 4 -158 5 -18 6 6 3 58 -3 48 -3 87 1 87
23 0 65 -34 77 -62 7 -18 19 -39 26 -46 13 -14 12 -60 -3 -97 -5 -13 1 -10 18
10 l26 30 -18 48 c-10 26 -30 63 -44 81 -24 32 -78 61 -90 49z"/>
<path d="M4313 7455 c0 -38 2 -53 4 -32 2 20 2 52 0 70 -2 17 -4 1 -4 -38z"/>
<path d="M6192 7480 c0 -14 2 -19 5 -12 2 6 2 18 0 25 -3 6 -5 1 -5 -13z"/>
<path d="M6181 7404 c0 -11 3 -14 6 -6 3 7 2 16 -1 19 -3 4 -6 -2 -5 -13z"/>
<path d="M4321 7354 c0 -11 3 -14 6 -6 3 7 2 16 -1 19 -3 4 -6 -2 -5 -13z"/>
<path d="M4457 7250 c4 -14 7 -33 7 -42 0 -9 2 -15 4 -13 3 2 13 -6 23 -18 23
-28 25 -9 2 23 -10 14 -24 36 -30 50 l-13 25 7 -25z"/>
<path d="M4431 7234 c0 -11 3 -14 6 -6 3 7 2 16 -1 19 -3 4 -6 -2 -5 -13z"/>
<path d="M6141 7234 c0 -11 3 -14 6 -6 3 7 2 16 -1 19 -3 4 -6 -2 -5 -13z"/>
<path d="M4372 7215 c52 -166 97 -255 130 -255 7 0 2 7 -10 16 -27 18 -52 66
-81 154 -12 36 -26 72 -32 80 -6 8 -9 10 -7 5z"/>
<path d="M6120 7145 c-7 -36 -10 -68 -8 -70 3 -3 10 25 17 61 6 37 10 68 8 71
-3 2 -10 -26 -17 -62z"/>
<path d="M4436 7187 c3 -10 9 -15 12 -12 3 3 0 11 -7 18 -10 9 -11 8 -5 -6z"/>
<path d="M6101 7044 c0 -11 3 -14 6 -6 3 7 2 16 -1 19 -3 4 -6 -2 -5 -13z"/>
<path d="M4693 6425 c0 -33 2 -45 4 -27 2 18 2 45 0 60 -2 15 -4 0 -4 -33z"/>
<path d="M4700 6343 c0 -6 9 -21 21 -34 l20 -24 -17 30 c-24 39 -24 40 -24 28z"/>
<path d="M4598 6320 c-9 -6 -41 -45 -71 -88 -30 -43 -101 -120 -158 -174 -99
-91 -111 -99 -244 -158 -269 -119 -432 -189 -645 -275 -385 -155 -458 -197
-489 -278 -22 -58 -63 -282 -76 -418 -8 -80 -25 -192 -39 -250 -14 -57 -29
-138 -35 -179 -6 -41 -29 -129 -51 -194 -52 -154 -84 -275 -164 -626 -106
-463 -164 -787 -191 -1059 -27 -272 -19 -343 57 -500 48 -101 114 -171 208
-223 82 -46 349 -158 550 -232 85 -32 182 -68 215 -80 33 -13 95 -36 138 -51
70 -25 78 -30 73 -49 -4 -11 -20 -86 -36 -166 -32 -154 -37 -219 -19 -237 8
-8 -4 -108 -45 -380 -31 -202 -67 -442 -79 -533 l-22 -165 1774 -3 c976 -1
1776 -1 1777 1 2 1 -17 162 -41 357 -93 736 -95 763 -79 781 12 14 12 33 -7
155 -11 76 -23 156 -26 177 -3 21 -1 37 4 37 10 0 119 61 273 153 47 28 157
98 245 157 88 59 190 126 227 149 75 48 152 124 190 191 25 43 47 111 82 262
32 134 14 271 -63 468 -24 62 -30 95 -35 190 -5 121 -28 230 -92 439 -38 126
-107 455 -124 592 -12 98 -32 174 -65 239 -16 33 -24 71 -28 140 -4 54 -21
158 -41 240 -19 80 -51 232 -71 338 -36 194 -71 314 -106 364 -24 32 -112 75
-369 178 -230 92 -446 185 -623 269 -93 44 -149 78 -205 125 -82 69 -159 145
-186 186 l-16 25 5 -30 c20 -117 46 -387 52 -525 10 -293 -20 -716 -91 -1258
-14 -101 -26 -186 -29 -188 -2 -2 -9 47 -16 108 -38 358 -84 601 -162 852 -37
120 -48 167 -43 195 9 55 34 132 57 173 l20 37 -35 53 c-76 113 -159 177 -212
164 -25 -6 -80 -82 -149 -207 -36 -66 -36 -66 -16 -85 11 -10 45 -51 75 -90
l56 -73 -30 -138 c-49 -219 -54 -278 -61 -632 l-6 -335 -54 165 c-71 218 -190
552 -296 834 -48 127 -100 264 -115 305 -16 41 -59 154 -97 250 -94 237 -117
324 -110 420 3 41 9 85 12 98 8 24 0 27 -27 12z m-903 -3360 c36 -137 58 -255
70 -368 l7 -62 -68 24 c-38 14 -70 30 -72 36 -2 6 -19 31 -37 55 l-33 43 19
40 c17 34 19 48 11 93 -8 42 -6 62 8 103 9 28 23 76 29 106 16 69 22 88 27 75
2 -5 19 -71 39 -145z m3186 -130 c4 -63 10 -127 14 -141 5 -20 -2 -36 -40 -83
-26 -31 -49 -55 -52 -53 -5 5 24 381 33 437 l6 35 16 -40 c8 -22 18 -92 23
-155z m-971 -663 c31 -14 88 -35 128 -46 l71 -22 21 21 c29 29 63 40 122 40
134 0 250 -129 294 -328 19 -87 15 -254 -9 -341 -16 -59 -38 -82 -100 -102
-22 -7 -52 -25 -66 -40 -24 -24 -33 -26 -81 -22 -109 9 -402 92 -547 154 -24
10 -43 16 -43 14 0 -28 498 -185 588 -185 30 0 33 -2 30 -27 -2 -14 -14 -34
-28 -44 -39 -29 -173 -59 -262 -59 -69 0 -94 6 -211 49 -72 26 -148 51 -167
54 -31 6 -31 5 7 -8 24 -7 104 -37 180 -65 131 -50 139 -51 207 -45 39 3 80 9
91 12 35 10 -33 -54 -83 -77 -101 -48 -228 -54 -319 -14 -70 30 -176 64 -197
63 -12 0 6 -8 39 -18 33 -10 100 -34 149 -54 92 -38 144 -45 204 -28 46 14 40
-2 -15 -37 -131 -83 -237 -69 -572 74 -206 89 -247 111 -376 204 -53 39 -94
66 -90 60 11 -18 -24 -69 -53 -77 -23 -5 -227 29 -239 40 -1 2 -7 27 -13 57
-42 222 50 570 191 724 l46 50 59 -13 c93 -21 131 -39 138 -67 6 -22 11 -24
64 -24 31 1 86 7 122 15 93 20 124 19 166 -10 33 -22 46 -25 128 -24 50 1 105
5 121 9 17 4 -10 5 -60 2 -104 -5 -166 8 -201 43 -51 51 -13 113 65 102 21 -2
60 1 86 8 30 7 107 11 204 10 143 -2 160 -4 211 -28z"/>
<path d="M6161 2116 c2 -2 27 -6 54 -9 34 -4 42 -3 25 3 -25 8 -87 13 -79 6z"/>
<path d="M6340 2045 c19 -19 36 -35 39 -35 3 0 -10 16 -29 35 -19 19 -36 35
-39 35 -3 0 10 -16 29 -35z"/>
<path d="M4948 2043 c6 -2 18 -2 25 0 6 3 1 5 -13 5 -14 0 -19 -2 -12 -5z"/>
<path d="M5663 2033 c9 -2 23 -2 30 0 6 3 -1 5 -18 5 -16 0 -22 -2 -12 -5z"/>
<path d="M5718 2023 c7 -3 16 -2 19 1 4 3 -2 6 -13 5 -11 0 -14 -3 -6 -6z"/>
<path d="M5835 2005 c33 -7 62 -11 63 -10 7 6 -72 25 -98 24 -14 0 2 -7 35
-14z"/>
<path d="M5938 1970 c42 -26 56 -26 17 0 -16 11 -34 20 -40 20 -5 0 5 -9 23
-20z"/>
<path d="M6004 1936 c11 -9 24 -16 30 -16 12 0 7 5 -24 19 -24 11 -24 11 -6
-3z"/>
<path d="M5625 1837 c66 -47 155 -101 155 -93 0 3 -21 18 -47 33 l-48 28 47 3
c28 2 75 -6 115 -18 54 -17 81 -20 133 -14 72 7 134 34 150 63 16 32 12 36
-10 9 -24 -32 -77 -53 -152 -62 -46 -6 -69 -3 -130 18 -45 16 -97 26 -129 26
-42 0 -63 6 -91 25 -62 42 -56 28 7 -18z"/>
<path d="M5790 1736 c0 -3 14 -12 30 -21 17 -9 30 -13 30 -11 0 3 -13 12 -30
21 -16 9 -30 13 -30 11z"/>
<path d="M5950 1646 c0 -2 7 -7 16 -10 8 -3 12 -2 9 4 -6 10 -25 14 -25 6z"/>
<path d="M6462 1580 c0 -14 2 -19 5 -12 2 6 2 18 0 25 -3 6 -5 1 -5 -13z"/>
<path d="M6240 1500 c8 -5 20 -10 25 -10 6 0 3 5 -5 10 -8 5 -19 10 -25 10 -5
0 -3 -5 5 -10z"/>
<path d="M6432 1485 c-17 -37 -14 -45 4 -12 9 16 14 31 11 33 -2 2 -9 -7 -15
-21z"/>
<path d="M6281 1486 c10 -9 89 -46 89 -41 0 5 -75 45 -86 45 -4 0 -5 -2 -3 -4z"/>
<path d="M4755 6260 c10 -11 20 -20 23 -20 3 0 -3 9 -13 20 -10 11 -20 20 -23
20 -3 0 3 -9 13 -20z"/>
<path d="M4935 6110 c10 -11 20 -20 23 -20 3 0 -3 9 -13 20 -10 11 -20 20 -23
20 -3 0 3 -9 13 -20z"/>
<path d="M5000 6067 c0 -3 12 -12 26 -22 15 -9 23 -12 20 -6 -7 11 -46 35 -46
28z"/>
<path d="M5714 6038 l-19 -23 23 19 c21 18 27 26 19 26 -2 0 -12 -10 -23 -22z"/>
</g>
</svg>
